<?xml version="1.0" encoding="UTF-8"?>
<svg fill="none" viewBox="0 0 30 30" xmlns="http://www.w3.org/2000/svg">
<mask id="a" x="0" y="0" width="30" height="30" mask-type="alpha" maskUnits="userSpaceOnUse">
<rect width="30" height="30" fill="#C4C4C4"/>
</mask>
<g fill="#0F9500" mask="url(#a)">
<path d="m21.694 5.3078 3.3078-3.3078h-11.556v11.556l3.3222-3.3223c2.8455 2.1089 4.6944 5.46 4.6944 9.2734 0 1.8922-0.4622 3.6689-1.2711 5.2433 3.3656-2.1956 5.6045-5.98 5.6045-10.299 0-3.64-1.6034-6.89-4.1023-9.1433z"/>
<path d="m8.3333 10.493c0-1.8922 0.46222-3.6689 1.2711-5.2433-1.7209 1.111-3.1356 2.636-4.1147 4.4352-0.97911 1.7992-1.4913 3.8153-1.4897 5.8637 0 3.64 1.5889 6.89 4.1022 9.1433l-3.3222 3.3078h11.556v-11.556l-3.3223 3.3223c-2.8311-2.1089-4.68-5.46-4.68-9.2734z"/>
</g>
</svg>
