<?xml version="1.0" encoding="UTF-8"?>
<svg fill="none" viewBox="0 0 30 30" xmlns="http://www.w3.org/2000/svg">
<mask id="a" x="0" y="0" width="30" height="30" mask-type="alpha" maskUnits="userSpaceOnUse">
<rect width="30" height="30" fill="#C4C4C4"/>
</mask>
<g mask="url(#a)">
<g clip-path="url(#b)">
<path d="m6.715 13.351-0.58219 2.1736c-0.14109 0.5273-0.17016 1.0729-0.11297 1.612l-1.65 1.3584c-0.30797 0.2536-0.76453-0.0201-0.68531-0.4111l0.72375-3.5943c0.04969-0.2466-0.12469-0.4819-0.375-0.5058l-3.6497-0.3539c-0.39703-0.0385-0.52641-0.5546-0.19406-0.7753l3.0539-2.0297c0.20907-0.1393 0.25219-0.4289 0.09282-0.623l-2.3302-2.8317c-0.25359-0.30797 0.02016-0.76407 0.41156-0.68532l3.5944 0.72375c0.24656 0.04969 0.48187-0.12468 0.50625-0.375l0.3539-3.6497c0.03844-0.3975 0.55454-0.52641 0.77579-0.19407l2.0297 3.0534c0.13922 0.20906 0.42891 0.25219 0.62297 0.09281l2.8312-2.3302c0.308-0.2536 0.7641 0.02015 0.6853 0.41109l-0.5311 2.6325c-0.127 0.14297-0.2545 0.28547-0.3707 0.44063l-1.5071 2.0142-0.502 0.6712c-1.5342 0.4107-2.7741 1.6186-3.1912 3.1754zm23.183 6.2114-0.5822 2.1731c-0.1467 0.5475-0.4397 1.013-0.8226 1.3762-0.1275 0.1207-0.2648 0.2305-0.4107 0.3282l-0.6557 2.4482c-0.0535 0.2002-0.1453 0.3797-0.2649 0.5335-0.3595 0.4612-0.9722 0.6881-1.5722 0.5273l-1.4489-0.3881c-0.8001-0.2142-1.275-1.0369-1.0608-1.837l0.3882-1.4489-11.591-3.106-0.3881 1.4489c-0.2142 0.8002-1.0369 1.275-1.837 1.0608l-1.4489-0.3881c-0.6-0.1608-1.0172-0.6638-1.0978-1.2427-0.02672-0.1931-0.01641-0.3947 0.03703-0.5943l0.65578-2.4483c-0.07757-0.1576-0.1417-0.3215-0.19172-0.4899-0.15-0.5057-0.17109-1.0556-0.02437-1.6031l0.58218-2.1736c0.24891-0.9281 0.9075-1.6326 1.7292-1.9786 0.27633-0.1164 0.56843-0.191 0.86673-0.2212l0.8498-1.1358 1.5071-2.0142c0.1617-0.21609 0.337-0.41719 0.525-0.60187 0.375-0.36985 0.7982-0.67688 1.2534-0.91454 0.2278-0.11906 0.4636-0.22078 0.7055-0.30421 0.4842-0.16782 0.9933-0.26391 1.5112-0.28313 0.518-0.01922 1.0458 0.03844 1.5671 0.17813l5.7506 1.5408c0.5212 0.13968 1.0069 0.35343 1.4461 0.62953 0.6554 0.41155 1.2109 0.964 1.6261 1.6171 0.4134 0.6507 0.6862 1.3988 0.7818 2.2027l0.2982 2.498 0.1682 1.4086c0.4868 0.3514 0.8579 0.8398 1.066 1.4029 0.2058 0.5569 0.248 1.1808 0.082 1.7996zm-17.918-5.5772c-0.8695-0.233-1.6036 0.1894-1.8361 1.0561-0.23248 0.8667 0.1927 1.5993 1.0617 1.8323 0.8696 0.233 2.1347 0.727 2.3668-0.1397 0.2325-0.8667-0.7233-2.5158-1.5924-2.7487zm13.622 1.3204-0.2982-2.4979c-0.0272-0.2283-0.0886-0.4467-0.179-0.6497-0.2719-0.6089-0.8063-1.0786-1.4728-1.2572l-5.7507-1.5408c-0.4343-0.11636-0.8936-0.09991-1.3186 0.04722-0.4249 0.14713-0.796 0.4182-1.0654 0.77826l-1.5071 2.0142 8.0625 2.16 3.5293 0.9459zm0.8667 2.5618c-0.8696-0.233-2.5219 0.7176-2.7539 1.5839-0.2321 0.8667 1.1104 1.0715 1.98 1.3045 0.8695 0.233 1.6036-0.1894 1.8361-1.0561 0.232-0.8662-0.1927-1.5994-1.0622-1.8323z" fill="#0F9500"/>
</g>
</g>
<defs>
<clipPath id="b">
<rect transform="translate(0 3)" width="30" height="24" fill="#fff"/>
</clipPath>
</defs>
</svg>
