<?xml version="1.0" encoding="UTF-8"?>
<svg fill="none" viewBox="0 0 26 28" xmlns="http://www.w3.org/2000/svg">
<path d="m12.056 27.834c0.4163 0.2223 0.9387 0.2209 1.355-0.0014 11.344-6.0937 12.149-17.999 12.139-21.384-1e-3 -0.27208-0.0814-0.53794-0.2313-0.76501-0.1499-0.22708-0.3627-0.40552-0.6125-0.51347l-11.397-5.0488c-0.1813-0.079952-0.3774-0.12113-0.5756-0.12088-0.1983 2.4381e-4 -0.3942 0.0419-0.5754 0.1223l-11.318 5.0488c-0.24607 0.108-0.45591 0.28447-0.60451 0.50838-0.1486 0.22391-0.22971 0.48582-0.23365 0.75452-0.048138 3.3682 0.63004 15.299 12.054 21.4zm-3.9841-16.227 3.2465 3.2464 6.0781-6.0781 2.0019 2.002-8.08 8.08-5.2484-5.2484 2.002-2.0019z" fill="#0F9500"/>
</svg>
