<?xml version="1.0" encoding="UTF-8"?>
<svg fill="none" viewBox="0 0 40 35" xmlns="http://www.w3.org/2000/svg">
<g clip-path="url(#a)">
<path d="m19.688 11.762c-0.6353 0-1.2674 0.0154-1.8949 0.0462 0.478 1.3462 1.1164 2.6168 1.8949 3.7902 0.777-1.1719 1.4169-2.444 1.8949-3.7902-0.6275-0.0308-1.2596-0.0462-1.8949-0.0462z" fill="#603813"/>
<path d="m19.688 24.242c-2.51-2.0062-4.6042-4.5181-6.1052-7.3337-0.4251-0.7957-0.8004-1.616-1.1274-2.4564 0.6587-0.1342 1.322-0.2513 1.9884-0.3485 1.1881 2.8789 2.9896 5.4463 5.2458 7.5403 3.6637-3.4047 6.1332-8.0553 6.7171-13.267-2.1861-0.35311-4.4298-0.53661-6.7171-0.53661-2.2874 0-4.5311 0.1835-6.7172 0.53661 0.1479 1.3215 0.4173 2.6075 0.7956 3.8457-0.657 0.1033-1.3079 0.2236-1.9525 0.3593-0.5559-1.8859-0.8751-3.8442-0.942-5.8179 0.0046-0.00154 0.0093-0.00154 0.014-0.00309-0.0094-0.25597-0.014-0.51348-0.014-0.77099 0-0.41325 0.0124-0.82342 0.0342-1.2305-0.3877 0.07555-0.7738 0.15728-1.16 0.24209v-0.00155c-0.12924 0.02776-0.25692 0.06014-0.38615 0.08944-0.15571 0.03547-0.31141 0.06939-0.46712 0.1064v0.00154c-0.97628 0.23592-1.9417 0.50115-2.893 0.79875v2.057c0.96226-0.31611 1.9323-0.59675 2.9117-0.84347 0.3846 8.0414 4.5466 15.105 10.773 19.489 0.5699-0.401 1.1227-0.825 1.6568-1.2706-0.5653-0.3763-1.1133-0.7772-1.6412-1.1982-0.0047 0.0047-0.0093 0.0093-0.014 0.0124zm0-14.441c1.4854 0 2.9724 0.08173 4.4439 0.24513-0.696 3.2475-2.2282 6.2744-4.4439 8.7832-2.2157-2.5088-3.7478-5.5357-4.4439-8.7832 1.4699-0.1634 2.9585-0.24513 4.4439-0.24513z" fill="#BA9353"/>
<path d="m34.195 2.1434c-4.5871-1.394-9.4591-2.1434-14.507-2.1434-5.0496 0-9.92 0.7494-14.507 2.1434-0.09187 0.69081-0.15726 1.3893-0.1993 2.0956 1.2238-0.39321 2.4648-0.73707 3.7229-1.03v0.01696c3.5812-0.84038 7.2621-1.266 10.984-1.266 2.9008 0 5.7767 0.25906 8.5996 0.771 0.0935 0.6723 0.1589 1.3492 0.1947 2.0323-2.8448-0.55357-5.7845-0.84192-8.7928-0.84192-2.3028 0-4.5668 0.16962-6.7778 0.49652-0.0374 0.52119-0.0577 1.0455-0.0577 1.5728 0 0.13878 0.0016 0.2791 0.0047 0.41788 2.2515-0.35157 4.5373-0.5289 6.8324-0.5289 2.974 0 5.9309 0.29761 8.8145 0.8851-0.1183 3.5388-1.0494 7.0314-2.7077 10.143-1.1865 2.2251-2.7451 4.2605-4.584 6.006 0.531 0.4102 1.0791 0.7957 1.6443 1.1534 4.7163-4.6044 7.6405-11.004 7.6405-18.077 0-0.03855-0.0016-0.07709-0.0016-0.11564-0.0015-0.18813-0.0047-0.37625-0.0093-0.56283-0.0016-0.03855 0-0.07556-0.0016-0.11411h-0.0015c-0.0218-0.69081-0.0717-1.3739-0.148-2.0508 0.6836 0.15574 1.364 0.32382 2.0413 0.50886 0.067 0.77408 0.0997 1.5559 0.0997 2.3346 0 4.8789-1.3126 9.6683-3.7977 13.847-2.2172 3.7301-5.308 6.8989-8.9858 9.2257-3.6778-2.3253-6.7701-5.4956-8.9858-9.2257-2.4835-4.1803-3.7977-8.9681-3.7977-13.847 0-0.08943 0.00155-0.17732 0.00311-0.26676-0.66642 0.19275-1.3251 0.40092-1.9775 0.62296 0.12924 10.681 6.0289 19.99 14.758 25.009 8.827-5.0762 14.761-14.535 14.761-25.366-0.0063-1.3045-0.0919-2.5874-0.2601-3.8472z" fill="#603813"/>
<path d="m37.124 7.0885c0.0981 0.22513 0.1292 0.4626 0.1214 0.6939-0.0124 0.23129-0.0638 0.45642-0.1728 0.65842-0.0997 0.19121-0.3208 0.27139-0.5169 0.19429-0.4173-0.16499-0.7615-0.49189-0.9483-0.92519-0.2195-0.54278-0.1417-1.1256 0.1931-1.5759 0.5605 0.04626 1.0775 0.38704 1.3235 0.95449z" fill="#BA9353"/>
<path d="m37.737 7.1055c-0.1059 0.22359-0.1729 0.45797-0.1838 0.69081-0.0155 0.23284 0.0265 0.46568 0.0935 0.68464 0.0669 0.20508 0.2693 0.32536 0.478 0.27602 0.4406-0.10332 0.8439-0.40092 1.0666-0.86506 0.2943-0.57978 0.2195-1.2629-0.0966-1.7594-0.5652 0.05705-1.093 0.41479-1.3577 0.97299z" fill="#BA9353"/>
<path d="m37.489 6.1325c-0.0094 0.86197-0.0327 1.7255-0.109 2.5859l-0.0856-0.00617c0.0763-0.85735 0.0996-1.7178 0.1089-2.5782h0.0857v-0.00154z" fill="#BA9353"/>
<path d="m36.94 9.642c0.0747 0.23284 0.0965 0.47187 0.07 0.70157-0.0311 0.2298-0.1121 0.4487-0.232 0.6415-0.1121 0.1835-0.3363 0.2467-0.5278 0.1527-0.4048-0.199-0.7287-0.5521-0.8673-0.9977-0.095-0.28065-0.1074-0.56283-0.0467-0.8296 0.0607-0.26522 0.1744-0.51656 0.3581-0.72627 0.2787 0.04626 0.5419 0.16499 0.7599 0.34386 0.2195 0.18041 0.3955 0.4225 0.4858 0.71394z" fill="#BA9353"/>
<path d="m37.55 9.7083c-0.1277 0.21434-0.204 0.44406-0.2335 0.67536-0.0343 0.2313-0.025 0.4642 0.0327 0.6878 0.0529 0.2112 0.246 0.3454 0.4562 0.3145 0.4437-0.0678 0.8641-0.3346 1.1366-0.7771 0.162-0.2776 0.2429-0.5891 0.2507-0.89439 0.0094-0.30531-0.0747-0.60754-0.2133-0.86814-0.2834 0.00463-0.5621 0.0879-0.8081 0.23593-0.246 0.14649-0.4578 0.35774-0.6213 0.62604z" fill="#BA9353"/>
<path d="m37.38 8.7184-0.0545 0.64455-0.0763 0.64298c-0.0436 0.4287-0.1183 0.8543-0.1806 1.2814l-0.0857-0.0139c0.0623-0.4255 0.1371-0.8496 0.1807-1.2783l0.0763-0.64147 0.0545-0.64301 0.0856 0.00771z" fill="#BA9353"/>
<path d="m36.554 12.172c0.0623 0.239 0.0592 0.4781 0.0093 0.7047-0.0482 0.2267-0.1417 0.4395-0.2756 0.623-0.1308 0.1727-0.3612 0.2174-0.5418 0.1095-0.3815-0.2282-0.6789-0.6076-0.7879-1.064-0.0342-0.1434-0.0467-0.2853-0.0405-0.4241 0.0016-0.1387 0.0234-0.276 0.0608-0.4055 0.0747-0.2606 0.2304-0.4981 0.4204-0.6954 0.5543 0.1372 1.0074 0.5551 1.1553 1.1518z" fill="#BA9353"/>
<path d="m37.156 12.288c-0.1386 0.2051-0.2382 0.4256-0.2912 0.6538-0.0529 0.2282-0.056 0.4626-0.0171 0.6908 0.0311 0.2128 0.2118 0.3639 0.4251 0.3485 0.4546-0.0308 0.8922-0.2637 1.1927-0.6862 0.095-0.131 0.1697-0.2729 0.2258-0.4194 0.0513-0.1465 0.084-0.2991 0.0981-0.4518 0.0264-0.3053-0.0109-0.6091-0.1386-0.882-0.5606-0.0339-1.1398 0.2374-1.4948 0.7463z" fill="#BA9353"/>
<path d="m37.069 11.287c-0.0685 0.4256-0.1542 0.8497-0.2336 1.2737l-0.1401 0.6322c-0.0452 0.2113-0.0919 0.421-0.1495 0.6307l-0.0841-0.02c0.0561-0.2082 0.1028-0.4179 0.148-0.6292l0.1401-0.6306c0.0794-0.4225 0.165-0.845 0.232-1.2706l0.0872 0.0138z" fill="#BA9353"/>
<path d="m35.964 14.664c0.0716 0.4811-0.0717 0.9591-0.3768 1.2999-0.1417 0.1619-0.3737 0.1897-0.5466 0.0663-0.369-0.2606-0.6228-0.6584-0.696-1.1226-0.0483-0.2914-0.0124-0.572 0.0919-0.8249 0.095-0.2545 0.2553-0.4811 0.4702-0.66 0.531 0.1804 0.9623 0.6353 1.0573 1.2413z" fill="#BA9353"/>
<path d="m36.555 14.828c-0.3239 0.3824-0.45 0.8573-0.4204 1.3137 0.0171 0.2159 0.1868 0.3809 0.3986 0.3824 0.4484 0.0031 0.9155-0.1912 1.2472-0.5875 0.2055-0.2482 0.3379-0.5427 0.3955-0.8419 0.0498-0.3022 0.0249-0.6122-0.0716-0.8913-0.5637-0.0801-1.1523 0.1465-1.5493 0.6246z" fill="#BA9353"/>
<path d="m36.546 13.824c-0.1074 0.4179-0.2117 0.8373-0.3379 1.2505-0.0622 0.2067-0.1183 0.4148-0.1837 0.6215l-0.2024 0.6152-0.0825-0.0277 0.2024-0.6137c0.0654-0.2051 0.123-0.4133 0.1837-0.6199 0.1261-0.4117 0.2305-0.8296 0.3363-1.2475l0.0841 0.0216z" fill="#BA9353"/>
<path d="m35.171 17.101c0.0452 0.4904-0.1588 0.9468-0.478 1.2676-0.1495 0.1526-0.3908 0.1572-0.5496 0.0231-0.3395-0.2853-0.5777-0.7093-0.6057-1.175-0.014-0.2914 0.0342-0.5721 0.1557-0.8157 0.1214-0.2437 0.3036-0.4564 0.5263-0.6199 0.26 0.111 0.4873 0.2884 0.6571 0.515 0.165 0.2252 0.2693 0.4996 0.2942 0.8049z" fill="#BA9353"/>
<path d="m35.747 17.31c-0.341 0.3593-0.5279 0.8142-0.5217 1.2784 0.0031 0.2189 0.1511 0.3932 0.3659 0.4117 0.4547 0.0416 0.9172-0.1218 1.2877-0.4873 0.2352-0.2282 0.38-0.5135 0.4609-0.8095 0.081-0.2961 0.0841-0.6045 0.0047-0.8929-0.2756-0.0616-0.5668-0.0478-0.8393 0.0386-0.2771 0.0848-0.5418 0.2375-0.7582 0.461z" fill="#BA9353"/>
<path d="m35.822 16.31-0.1012 0.3084-0.1121 0.3037-0.2227 0.6091c-0.1572 0.4025-0.3192 0.8034-0.4873 1.2012l-0.0795-0.0339c0.1682-0.3963 0.3286-0.7972 0.4859-1.1981l0.2226-0.606 0.1106-0.3038 0.1012-0.3068 0.0825 0.0262z" fill="#BA9353"/>
<path d="m34.187 19.469c-0.0047 0.2436-0.0639 0.4765-0.1635 0.6846-0.0498 0.1049-0.1106 0.2036-0.1791 0.2946-0.0732 0.0894-0.1541 0.1711-0.2413 0.2436-0.1666 0.1372-0.4002 0.1264-0.5512-0.0216-0.3223-0.3161-0.5029-0.7463-0.5061-1.2182 0-0.296 0.0872-0.5628 0.2227-0.7987s0.3332-0.4333 0.5746-0.5767c0.4982 0.2606 0.8408 0.7756 0.8439 1.3924z" fill="#BA9353"/>
<path d="m34.744 19.724c-0.1915 0.1619-0.3394 0.3547-0.4422 0.5644-0.0514 0.1049-0.0919 0.2143-0.1215 0.3269-0.0327 0.111-0.0545 0.2236-0.0654 0.3377-0.0186 0.2159 0.1199 0.404 0.3301 0.441 0.4407 0.074 0.9389-0.0401 1.3251-0.3824 0.2429-0.2128 0.4282-0.478 0.5278-0.7679 0.0997-0.2899 0.1262-0.5998 0.0779-0.8897-0.5434-0.1681-1.1678-0.0417-1.6318 0.37z" fill="#BA9353"/>
<path d="m34.898 18.73c-0.1791 0.3932-0.3426 0.7941-0.5372 1.1796l-0.2834 0.5829c-0.0965 0.1927-0.2009 0.3824-0.3005 0.5752l-0.0763-0.0401c0.0996-0.1912 0.2024-0.3809 0.3005-0.5721l0.2818-0.5813c0.1947-0.3855 0.3566-0.7849 0.5356-1.1766l0.0795 0.0324z" fill="#BA9353"/>
<path d="m33.007 21.745c-0.0234 0.2421-0.0934 0.4734-0.2133 0.6723-0.1215 0.1974-0.2803 0.3685-0.4656 0.5011-0.1744 0.1249-0.4064 0.0956-0.5449-0.0647-0.2943-0.3393-0.4531-0.7926-0.4049-1.2567 0.0483-0.5891 0.4111-1.0563 0.9031-1.3092 0.4734 0.3022 0.7863 0.8496 0.7256 1.4572z" fill="#BA9353"/>
<path d="m33.541 22.044c-0.2024 0.1465-0.3581 0.3316-0.4827 0.5305s-0.2055 0.4179-0.2413 0.6461c-0.0343 0.2143 0.0903 0.4148 0.2958 0.4672 0.436 0.1095 0.9249 0.0277 1.35-0.276 0.52-0.3855 0.7972-1.0131 0.7349-1.6068-0.5263-0.2097-1.1475-0.1264-1.6567 0.239z" fill="#BA9353"/>
<path d="m33.777 21.068c-0.3986 0.7679-0.8455 1.5096-1.3033 2.2436l-0.0732-0.0463c0.4562-0.7324 0.9016-1.4711 1.3002-2.2374l0.0763 0.0401z" fill="#BA9353"/>
<path d="m31.65 23.924c-0.0405 0.2421-0.1401 0.4595-0.2725 0.6507-0.1323 0.1897-0.302 0.3516-0.5029 0.4642-0.1869 0.1079-0.4157 0.0601-0.5403-0.1095-0.2647-0.3624-0.3768-0.8173-0.3005-1.2845 0.1074-0.5767 0.4889-1.0254 1.0136-1.2305 0.4485 0.3408 0.7007 0.9021 0.6026 1.5096z" fill="#BA9353"/>
<path d="m32.158 24.265c-0.2117 0.1326-0.3924 0.296-0.5278 0.4872-0.1371 0.1912-0.2305 0.4056-0.2912 0.6261-0.0545 0.2097 0.0529 0.4179 0.2554 0.4873 0.425 0.1449 0.9311 0.1079 1.3686-0.1666 0.5606-0.3346 0.8689-0.9514 0.8689-1.5389-0.5092-0.2498-1.1492-0.2266-1.6739 0.1049z" fill="#BA9353"/>
<path d="m32.474 23.31c-0.4749 0.7232-0.9592 1.4418-1.4886 2.128l-0.0685-0.0509c0.5279-0.6831 1.0106-1.4001 1.4839-2.1218l0.0732 0.0447z" fill="#BA9353"/>
<path d="m30.115 25.986c-0.0623 0.236-0.1698 0.4534-0.3192 0.6292-0.1511 0.1758-0.3364 0.3207-0.5403 0.4209-0.1931 0.0956-0.4158 0.0309-0.5279-0.1495-0.2351-0.3824-0.3192-0.8543-0.1977-1.3046 0.1432-0.572 0.5761-0.9791 1.1039-1.1487 0.4189 0.3716 0.64 0.9622 0.4812 1.5527z" fill="#BA9353"/>
<path d="m30.595 26.365c-0.2242 0.1125-0.4079 0.2698-0.5621 0.4471-0.1541 0.1774-0.2693 0.3809-0.3425 0.5999-0.0685 0.2066 0.0233 0.424 0.2164 0.5073 0.4126 0.1773 0.9093 0.1727 1.378-0.0586 0.5761-0.2976 0.9483-0.8743 0.9841-1.468-0.4874-0.293-1.1118-0.3084-1.6739-0.0277z" fill="#BA9353"/>
<path d="m30.987 25.438c-0.5169 0.6938-1.079 1.3554-1.6489 2.0076l-0.0654-0.057c0.5683-0.6508 1.1289-1.3092 1.6442-2.0015l0.0701 0.0509z" fill="#BA9353"/>
<path d="m28.424 27.921c-0.0794 0.2313-0.2118 0.4318-0.3737 0.5983-0.1619 0.1666-0.355 0.2992-0.5715 0.3794-0.2024 0.0771-0.4204-0.0062-0.5169-0.1928-0.204-0.3994-0.2398-0.8666-0.0903-1.3153 0.1977-0.552 0.6477-0.936 1.1989-1.0547 0.3893 0.4055 0.5481 0.9992 0.3535 1.5851z" fill="#BA9353"/>
<path d="m28.873 28.337c-0.2304 0.0971-0.436 0.2297-0.5995 0.3978-0.165 0.1665-0.2942 0.3639-0.3892 0.5721-0.0872 0.1989-0.014 0.4209 0.1728 0.5212 0.3971 0.2097 0.9015 0.2544 1.378 0.0524 0.6073-0.2421 1.0105-0.8018 1.104-1.3816-0.4594-0.3285-1.0947-0.4071-1.6661-0.1619z" fill="#BA9353"/>
<path d="m29.338 27.446c-0.5855 0.6399-1.1787 1.2721-1.8109 1.8658l-0.0607-0.0617c0.6306-0.5921 1.2238-1.2228 1.8062-1.8596l0.0654 0.0555z" fill="#BA9353"/>
<path d="m26.579 29.712c-0.0997 0.2236-0.2398 0.421-0.4173 0.5721s-0.3831 0.2637-0.601 0.33c-0.2056 0.0648-0.4158-0.0355-0.4967-0.2313-0.1713-0.4148-0.1791-0.8928 0.014-1.3199 0.2351-0.5428 0.7271-0.8759 1.2752-0.9607 0.3535 0.4348 0.4765 1.0532 0.2258 1.6098z" fill="#BA9353"/>
<path d="m26.99 30.163c-0.2398 0.0756-0.4453 0.202-0.6259 0.3531-0.1806 0.1496-0.3286 0.3331-0.4344 0.5382-0.1013 0.1927-0.0452 0.4225 0.1323 0.535 0.3784 0.2406 0.8704 0.3146 1.3687 0.1589 0.6166-0.202 1.0775-0.714 1.2083-1.2938-0.4345-0.3639-1.0479-0.4795-1.649-0.2914z" fill="#BA9353"/>
<path d="m27.526 29.31c-0.6229 0.6044-1.2831 1.1672-1.9511 1.7224l-0.0545-0.0663c0.6649-0.5536 1.3251-1.1149 1.9448-1.7178l0.0608 0.0617z" fill="#BA9353"/>
<path d="m24.598 31.358c-0.1152 0.2159-0.2787 0.3932-0.4656 0.532-0.1868 0.1388-0.3986 0.239-0.6244 0.2837-0.2117 0.0447-0.4141-0.0724-0.478-0.2729-0.137-0.4256-0.0981-0.8928 0.1215-1.3122 0.2849-0.5135 0.7894-0.8219 1.3531-0.8527 0.3176 0.4641 0.3799 1.0747 0.0934 1.6221z" fill="#BA9353"/>
<path d="m24.972 31.84c-0.2429 0.0586-0.4671 0.1588-0.6555 0.2976-0.19 0.1388-0.3488 0.313-0.4765 0.5042-0.1183 0.182-0.0825 0.4133 0.0872 0.5412 0.3581 0.2699 0.8501 0.3933 1.3531 0.2684 0.6384-0.1435 1.1257-0.6323 1.3126-1.1905-0.4018-0.3963-1.0168-0.5736-1.6209-0.4209z" fill="#BA9353"/>
<path d="m25.576 31.032c-0.6804 0.5397-1.3671 1.0701-2.088 1.5558l-0.0498-0.0709c0.7178-0.4842 1.4044-1.0146 2.0833-1.5512l0.0545 0.0663z" fill="#BA9353"/>
<path d="m22.487 32.837c-0.1339 0.2035-0.3052 0.3778-0.5029 0.4981-0.1993 0.1202-0.4204 0.1989-0.6478 0.2312-0.2133 0.0309-0.4048-0.1002-0.4531-0.3068-0.1012-0.4364-0.0327-0.9098 0.2274-1.2999 0.3192-0.4981 0.8579-0.7494 1.4122-0.7463 0.2803 0.4826 0.3021 1.1133-0.0358 1.6237z" fill="#BA9353"/>
<path d="m22.822 33.346c-0.2492 0.037-0.4734 0.1295-0.6758 0.2498-0.2024 0.1187-0.3768 0.2775-0.5169 0.4626-0.1308 0.1742-0.1137 0.4101 0.0451 0.5504 0.3348 0.2977 0.8081 0.4472 1.3266 0.3732 0.6415-0.1018 1.1787-0.5335 1.4014-1.0871-0.3706-0.4302-0.9576-0.6399-1.5804-0.5489z" fill="#BA9353"/>
<path d="m23.488 32.588c-0.7116 0.4981-1.4543 0.9499-2.2032 1.3925l-0.0436-0.0741c0.7458-0.441 1.4869-0.8912 2.197-1.3877l0.0498 0.0693z" fill="#BA9353"/>
<path d="m37.461 6.2312c0.0996-0.00154 0.1962-0.03855 0.2709-0.1064 0.4267-0.38704 0.6696-0.93907 0.6633-1.5127-0.0078-0.69235-0.3768-1.3369-0.9685-1.7008-0.5839 0.37625-0.9389 1.027-0.9311 1.7193 0.0062 0.57362 0.2585 1.1195 0.6945 1.4988 0.0747 0.0663 0.1712 0.10331 0.2709 0.10177z" fill="#BA9353"/>
<path d="m2.2515 7.0885c-0.0981 0.22513-0.12924 0.4626-0.12145 0.6939 0.01245 0.23129 0.06383 0.45642 0.17283 0.65842 0.09965 0.19121 0.3192 0.27139 0.51694 0.19429 0.4173-0.16499 0.76141-0.49189 0.94826-0.92519 0.21954-0.54278 0.14169-1.1256-0.19308-1.5759-0.56054 0.04626-1.0775 0.38704-1.3235 0.95449z" fill="#BA9353"/>
<path d="m1.638 7.1055c0.10588 0.22359 0.17128 0.45797 0.18373 0.69081 0.01557 0.23284-0.02647 0.46568-0.09342 0.68464-0.06696 0.20508-0.26937 0.32536-0.47802 0.27602-0.44065-0.10332-0.84393-0.40092-1.0666-0.86506-0.29428-0.57978-0.21955-1.2629 0.096537-1.7594 0.56521 0.05705 1.0931 0.41479 1.3578 0.97299z" fill="#BA9353"/>
<path d="m1.8856 6.1325c0.00935 0.86197 0.0327 1.7255 0.109 2.5859l0.08564-0.00617c-0.0763-0.85735-0.09965-1.7178-0.109-2.5782h-0.08564v-0.00154z" fill="#BA9353"/>
<path d="m2.4352 9.642c-0.07474 0.23284-0.09654 0.47187-0.07007 0.70157 0.03114 0.2298 0.11211 0.4487 0.232 0.6415 0.11211 0.1835 0.33633 0.2467 0.52784 0.1527 0.40484-0.199 0.72871-0.5521 0.86729-0.9977 0.09498-0.28065 0.10743-0.56283 0.04671-0.8296-0.06073-0.26522-0.17439-0.51656-0.35813-0.72627-0.27871 0.04626-0.54185 0.16499-0.75984 0.34386-0.21955 0.18041-0.39549 0.4225-0.4858 0.71394z" fill="#BA9353"/>
<path d="m1.8249 9.7083c0.12768 0.21434 0.20397 0.44406 0.23356 0.67536 0.03425 0.2313 0.02491 0.4642-0.0327 0.6878-0.05294 0.2112-0.24602 0.3454-0.45622 0.3145-0.44376-0.0678-0.86417-0.3346-1.1367-0.7771-0.16193-0.2776-0.2429-0.5891-0.25069-0.89439-0.009342-0.30531 0.074739-0.60754 0.21332-0.86814 0.28338 0.00463 0.5621 0.0879 0.80967 0.23593 0.24446 0.14649 0.45622 0.35774 0.61971 0.62604z" fill="#BA9353"/>
<path d="m1.9946 8.7184 0.0545 0.64455 0.07629 0.64298c0.0436 0.4287 0.11834 0.8543 0.18062 1.2814l0.08564-0.0139c-0.06228-0.4255-0.13702-0.8496-0.18062-1.2783l-0.07629-0.64147-0.0545-0.64301-0.08564 0.00771z" fill="#BA9353"/>
<path d="m2.8214 12.172c-0.06229 0.239-0.05917 0.4781-0.00935 0.7047 0.04983 0.2267 0.1417 0.4395 0.2756 0.623 0.1308 0.1727 0.36124 0.2174 0.54186 0.1095 0.38148-0.2282 0.67888-0.6076 0.78787-1.064 0.03426-0.1434 0.04516-0.2853 0.03893-0.4241-0.00156-0.1387-0.02336-0.276-0.06073-0.4055-0.07473-0.2606-0.23044-0.4981-0.4204-0.6954-0.55276 0.1372-1.0059 0.5551-1.1538 1.1518z" fill="#BA9353"/>
<path d="m2.2188 12.288c0.13858 0.2051 0.23823 0.4256 0.29117 0.6538s0.05606 0.4626 0.01713 0.6908c-0.03114 0.2128-0.21176 0.3639-0.42508 0.3485-0.45466-0.0308-0.89219-0.2637-1.1927-0.6862-0.094981-0.131-0.16972-0.2729-0.22578-0.4194-0.051383-0.1465-0.084081-0.2991-0.098095-0.4518-0.02647-0.3053 0.0109-0.6091 0.13858-0.882 0.56054-0.0339 1.1398 0.2374 1.4948 0.7463z" fill="#BA9353"/>
<path d="m2.3076 11.287c0.06851 0.4256 0.15259 0.8497 0.23356 1.2737l0.14014 0.6322c0.04515 0.2113 0.09186 0.421 0.14947 0.6307l0.08409-0.02c-0.05606-0.2082-0.10277-0.4179-0.14792-0.6292l-0.14014-0.6306c-0.07941-0.4225-0.16505-0.845-0.232-1.2706l-0.0872 0.0138z" fill="#BA9353"/>
<path d="m3.4115 14.664c-0.07163 0.4811 0.07162 0.9591 0.37681 1.2999 0.14169 0.1619 0.37369 0.1897 0.54652 0.0663 0.36903-0.2606 0.62283-0.6584 0.69601-1.1226 0.04827-0.2914 0.01246-0.572-0.09186-0.8249-0.09499-0.2545-0.25536-0.4811-0.47024-0.66-0.53096 0.1804-0.96226 0.6353-1.0572 1.2413z" fill="#BA9353"/>
<path d="m2.8198 14.828c0.32387 0.3824 0.44999 0.8573 0.4204 1.3137-0.01712 0.2159-0.18684 0.3809-0.3986 0.3824-0.44844 0.0031-0.91556-0.1912-1.2472-0.5875-0.20553-0.2482-0.33788-0.5427-0.3955-0.8419-0.04982-0.3022-0.02491-0.6122 0.07163-0.8913 0.56366-0.0801 1.1522 0.1465 1.5493 0.6246z" fill="#BA9353"/>
<path d="m2.8276 13.824c0.10588 0.4179 0.21176 0.8373 0.33788 1.2505 0.06229 0.2067 0.11834 0.4148 0.18374 0.6215l0.20242 0.6152 0.08252-0.0277-0.20242-0.6137c-0.06539-0.2051-0.12301-0.4133-0.18373-0.6199-0.12612-0.4117-0.23045-0.8296-0.33633-1.2475l-0.08408 0.0216z" fill="#BA9353"/>
<path d="m4.2041 17.101c-0.04515 0.4904 0.15882 0.9468 0.47802 1.2676 0.14948 0.1526 0.39082 0.1572 0.54964 0.0231 0.33944-0.2853 0.57767-0.7093 0.6057-1.175 0.01401-0.2914-0.03426-0.5721-0.15415-0.8157-0.12145-0.2437-0.30518-0.4564-0.52629-0.6199-0.26003 0.111-0.48736 0.2884-0.65708 0.515-0.1666 0.2252-0.27093 0.4996-0.29584 0.8049z" fill="#BA9353"/>
<path d="m3.628 17.31c0.341 0.3593 0.52785 0.8142 0.52162 1.2784-0.00312 0.2189-0.15104 0.3932-0.36591 0.4117-0.45466 0.0416-0.91711-0.1218-1.2877-0.4873-0.23512-0.2282-0.37993-0.5135-0.46089-0.8095-0.08097-0.2961-0.08408-0.6045-0.00467-0.8929 0.2756-0.0616 0.56677-0.0478 0.83925 0.0386 0.27716 0.0848 0.54186 0.2375 0.75829 0.461z" fill="#BA9353"/>
<path d="m3.5532 16.31 0.10121 0.3084 0.11211 0.3038 0.22266 0.609c0.15726 0.4025 0.3192 0.8034 0.48736 1.2012l0.07941-0.0339c-0.16816-0.3963-0.32854-0.7972-0.4858-1.1981l-0.22266-0.606-0.11055-0.3053-0.10121-0.3069-0.08253 0.0278z" fill="#BA9353"/>
<path d="m5.1881 19.469c0.00467 0.2436 0.06384 0.4765 0.16349 0.6846 0.04983 0.1049 0.11056 0.2036 0.17907 0.2946 0.07318 0.0894 0.15415 0.1711 0.24134 0.2436 0.16661 0.1372 0.40017 0.1264 0.5512-0.0216 0.32231-0.3161 0.50293-0.7463 0.50605-1.2182 0-0.296-0.0872-0.5628-0.22266-0.7987-0.13547-0.2359-0.33321-0.4333-0.57456-0.5767-0.49826 0.2606-0.84081 0.7756-0.84393 1.3924z" fill="#BA9353"/>
<path d="m4.6307 19.724c0.19152 0.1619 0.33944 0.3547 0.4422 0.5644 0.05139 0.1049 0.09187 0.2143 0.12145 0.3269 0.0327 0.111 0.0545 0.2236 0.0654 0.3377 0.02024 0.2159-0.11989 0.404-0.3301 0.441-0.44065 0.074-0.93891-0.0401-1.3251-0.3824-0.2429-0.2128-0.42819-0.478-0.52784-0.7679s-0.12612-0.5998-0.07786-0.8897c0.54186-0.1681 1.1678-0.0417 1.6318 0.37z" fill="#BA9353"/>
<path d="m4.4766 18.73c0.17906 0.3932 0.34256 0.7941 0.53719 1.1796l0.28338 0.5829c0.09654 0.1927 0.20087 0.3824 0.30052 0.5752l0.07629-0.0401c-0.09965-0.1912-0.20242-0.3809-0.30051-0.5721l-0.28183-0.5813c-0.19463-0.3855-0.35657-0.7849-0.53563-1.1766l-0.07941 0.0324z" fill="#BA9353"/>
<path d="m6.3684 21.745c0.02336 0.2421 0.09342 0.4734 0.21332 0.6723 0.12145 0.1974 0.28027 0.3685 0.46556 0.5011 0.17439 0.1249 0.40639 0.0956 0.54497-0.0647 0.29428-0.3393 0.4531-0.7926 0.40639-1.2567-0.04827-0.5891-0.41106-1.0563-0.90309-1.3092-0.47491 0.3022-0.78787 0.8496-0.72715 1.4572z" fill="#BA9353"/>
<path d="m5.8343 22.044c0.20242 0.1465 0.35813 0.3316 0.48269 0.5305 0.12457 0.1989 0.20554 0.4179 0.24135 0.6461 0.03425 0.2143-0.09031 0.4148-0.29584 0.4672-0.43598 0.1095-0.9249 0.0277-1.35-0.276-0.52006-0.3855-0.79721-1.0131-0.73493-1.6068 0.52629-0.2097 1.1476-0.1264 1.6567 0.239z" fill="#BA9353"/>
<path d="m5.5976 21.068c0.39861 0.7679 0.84549 1.5096 1.3033 2.2436l0.07318-0.0463c-0.45622-0.7324-0.90154-1.4711-1.3001-2.2374l-0.0763 0.0401z" fill="#BA9353"/>
<path d="m7.7246 23.924c0.04048 0.2421 0.14013 0.4595 0.27248 0.6507 0.13235 0.1897 0.30207 0.3516 0.50294 0.4642 0.18684 0.1079 0.41573 0.0601 0.5403-0.1095 0.2647-0.3624 0.37681-0.8173 0.30051-1.2845-0.10744-0.5767-0.48892-1.0254-1.0136-1.2305-0.44843 0.3408-0.70068 0.9021-0.60258 1.5096z" fill="#BA9353"/>
<path d="m7.217 24.265c0.21176 0.1326 0.39238 0.296 0.52784 0.4872 0.13703 0.1912 0.23045 0.4056 0.29117 0.6261 0.0545 0.2097-0.05294 0.4179-0.25535 0.4873-0.42508 0.1449-0.93113 0.1079-1.3687-0.1666-0.56055-0.3346-0.86885-0.9514-0.86885-1.5389 0.50916-0.2498 1.1476-0.2266 1.6738 0.1049z" fill="#BA9353"/>
<path d="m6.9009 23.31c0.47335 0.7232 0.95915 1.4418 1.4886 2.128l0.06851-0.0509c-0.52784-0.6831-1.0105-1.4001-1.4839-2.1218l-0.07318 0.0447z" fill="#BA9353"/>
<path d="m9.2598 25.986c0.06228 0.236 0.16972 0.4534 0.3192 0.6292 0.15103 0.1758 0.33632 0.3207 0.54025 0.4209 0.1931 0.0956 0.4158 0.0309 0.5279-0.1495 0.2351-0.3824 0.3192-0.8543 0.1977-1.3046-0.1432-0.572-0.5761-0.9791-1.1039-1.1487-0.41885 0.3716-0.64151 0.9622-0.48113 1.5527z" fill="#BA9353"/>
<path d="m8.7803 26.365c0.22422 0.1125 0.40796 0.2698 0.5621 0.4471 0.15415 0.1774 0.26938 0.3809 0.34256 0.5999 0.06851 0.2066-0.02336 0.424-0.21643 0.5073-0.41263 0.1773-0.90933 0.1727-1.378-0.0586-0.57611-0.2976-0.94825-0.8743-0.98406-1.468 0.48736-0.293 1.1117-0.3084 1.6738-0.0277z" fill="#BA9353"/>
<path d="m8.3879 25.438c0.51695 0.6938 1.079 1.3554 1.6489 2.0076l0.0654-0.057c-0.56831-0.6508-1.1288-1.3092-1.6442-2.0015l-0.07007 0.0509z" fill="#BA9353"/>
<path d="m10.951 27.921c0.0794 0.2313 0.2118 0.4318 0.3737 0.5983 0.162 0.1666 0.355 0.2992 0.5715 0.3794 0.2024 0.0771 0.4204-0.0062 0.5169-0.1928 0.204-0.3994 0.2413-0.8666 0.0903-1.3153-0.1977-0.552-0.6477-0.936-1.1989-1.0547-0.3909 0.4055-0.5481 0.9992-0.3535 1.5851z" fill="#BA9353"/>
<path d="m10.502 28.337c0.2304 0.0971 0.4344 0.2297 0.5995 0.3978 0.165 0.1665 0.2942 0.3639 0.3892 0.5721 0.0872 0.1989 0.014 0.4209-0.1728 0.5212-0.3971 0.2097-0.9015 0.2544-1.378 0.0524-0.60725-0.2421-1.0105-0.8018-1.104-1.3816 0.45934-0.3285 1.0946-0.4071 1.6661-0.1619z" fill="#BA9353"/>
<path d="m10.037 27.446c0.5839 0.6399 1.1787 1.2721 1.8109 1.8658l0.0607-0.0617c-0.6306-0.5921-1.2238-1.2228-1.8062-1.8596l-0.0654 0.0555z" fill="#BA9353"/>
<path d="m12.796 29.712c0.0997 0.2236 0.2398 0.421 0.4173 0.5721s0.3831 0.2637 0.6011 0.33c0.2055 0.0648 0.4157-0.0355 0.4967-0.2313 0.1712-0.4148 0.179-0.8928-0.0141-1.3199-0.2351-0.5428-0.7271-0.8759-1.2752-0.9607-0.3534 0.4348-0.4765 1.0532-0.2258 1.6098z" fill="#BA9353"/>
<path d="m12.383 30.163c0.2398 0.0756 0.4453 0.202 0.626 0.3531 0.1806 0.1496 0.3285 0.3331 0.4344 0.5382 0.1012 0.1927 0.0451 0.4225-0.1324 0.535-0.3783 0.2406-0.8688 0.3146-1.3686 0.1589-0.6166-0.202-1.0775-0.714-1.2083-1.2938 0.436-0.3639 1.0495-0.4795 1.6489-0.2914z" fill="#BA9353"/>
<path d="m11.849 29.31c0.6229 0.6044 1.2831 1.1672 1.951 1.7224l0.0545-0.0663c-0.6648-0.5536-1.3235-1.1149-1.9447-1.7178l-0.0608 0.0617z" fill="#BA9353"/>
<path d="m14.776 31.358c0.1152 0.2159 0.2787 0.3932 0.4656 0.532 0.1868 0.1388 0.3986 0.239 0.6244 0.2837 0.2117 0.0447 0.4141-0.0724 0.478-0.2729 0.137-0.4256 0.0981-0.8928-0.1215-1.3122-0.2849-0.5135-0.7894-0.8219-1.3531-0.8527-0.3176 0.4641-0.3799 1.0747-0.0934 1.6221z" fill="#BA9353"/>
<path d="m14.403 31.84c0.2429 0.0586 0.4671 0.1588 0.6555 0.2976 0.19 0.1388 0.3488 0.313 0.4765 0.5042 0.1183 0.182 0.0825 0.4133-0.0872 0.5412-0.3581 0.2699-0.8501 0.3933-1.3531 0.2684-0.6384-0.1435-1.1257-0.6323-1.3126-1.1905 0.4017-0.3963 1.0168-0.5736 1.6209-0.4209z" fill="#BA9353"/>
<path d="m13.799 31.032c0.6804 0.5397 1.3671 1.0701 2.088 1.5558l0.0498-0.0709c-0.7178-0.4842-1.4044-1.0146-2.0833-1.5512l-0.0545 0.0663z" fill="#BA9353"/>
<path d="m16.888 32.837c0.1339 0.2035 0.3036 0.3778 0.5029 0.4981 0.1993 0.1202 0.4204 0.1989 0.6478 0.2312 0.2133 0.0309 0.4048-0.1002 0.4531-0.3068 0.1012-0.4364 0.0327-0.9098-0.2274-1.2999-0.3192-0.4981-0.8579-0.7494-1.4122-0.7463-0.2803 0.4826-0.3021 1.1133 0.0358 1.6237z" fill="#BA9353"/>
<path d="m16.553 33.346c0.2492 0.037 0.4734 0.1295 0.6758 0.2498 0.2024 0.1187 0.3768 0.2775 0.517 0.4626 0.1307 0.1742 0.1136 0.4101-0.0452 0.5504-0.3348 0.2977-0.8081 0.4472-1.3266 0.3732-0.6415-0.1018-1.1787-0.5335-1.4014-1.0871 0.3706-0.4302 0.9576-0.6399 1.5804-0.5489z" fill="#BA9353"/>
<path d="m15.887 32.588c0.7116 0.4981 1.4543 0.9499 2.2032 1.3925l0.0436-0.0741c-0.7458-0.441-1.4869-0.8912-2.197-1.3877l-0.0498 0.0693z" fill="#BA9353"/>
<path d="m1.9136 6.2312c-0.09965-0.00154-0.19618-0.03855-0.27092-0.1064-0.42664-0.38704-0.66954-0.93907-0.66331-1.5127 0.007785-0.69235 0.37681-1.3369 0.96849-1.7008 0.5839 0.37625 0.93891 1.027 0.93112 1.7193-0.00623 0.57362-0.25847 1.1195-0.69445 1.4988-0.07474 0.0663-0.17127 0.10331-0.27093 0.10177z" fill="#BA9353"/>
</g>
<defs>
<clipPath id="a">
<rect width="39.375" height="35" fill="#fff"/>
</clipPath>
</defs>
</svg>
