<?xml version="1.0" encoding="UTF-8"?>
<svg fill="none" viewBox="0 0 30 30" xmlns="http://www.w3.org/2000/svg">
<path d="m25.5 24c0 1.5913-0.6321 3.1174-1.7574 4.2426-1.1252 1.1253-2.6513 1.7574-4.2426 1.7574h-9c-0.78919 0-1.5706-0.1557-2.2996-0.4582-0.72893-0.3024-1.391-0.7457-1.9484-1.3045-0.55735-0.5587-0.99899-1.2219-1.2996-1.9516-0.30064-0.7297-0.45438-1.5115-0.45241-2.3007v-17.985c0-0.39782 0.15804-0.77936 0.43934-1.0607 0.28131-0.2813 0.66284-0.43934 1.0607-0.43934 0.39783 0 0.77936 0.15804 1.0607 0.43934 0.28131 0.2813 0.43934 0.66284 0.43934 1.0607v9h1.5v-12c0-0.39782 0.15804-0.77936 0.43934-1.0607 0.28131-0.2813 0.66286-0.43934 1.0607-0.43934s0.7794 0.15804 1.0607 0.43934 0.4393 0.66284 0.4393 1.0607v12h1.5v-13.5c0-0.39782 0.158-0.77936 0.4393-1.0607 0.2813-0.2813 0.6629-0.43934 1.0607-0.43934s0.7794 0.15804 1.0607 0.43934c0.2813 0.2813 0.4393 0.66284 0.4393 1.0607v13.5h1.5v-12c0-0.39782 0.158-0.77936 0.4393-1.0607s0.6629-0.43934 1.0607-0.43934 0.7794 0.15804 1.0607 0.43934 0.4393 0.66284 0.4393 1.0607v19.5h1.5v-9c0-0.3978 0.158-0.7794 0.4393-1.0607s0.6629-0.4393 1.0607-0.4393h1.5v12z" fill="#0F9500"/>
</svg>
