<?xml version="1.0" encoding="UTF-8"?>
<svg fill="none" viewBox="0 0 28 28" xmlns="http://www.w3.org/2000/svg">
<path d="m14 0c-7.732 0-14 6.268-14 14 0 7.732 6.268 14 14 14 7.732 0 14-6.268 14-14 0-7.732-6.268-14-14-14zm-5.0312 5.561c0.28845-0.01701 0.54917 0.1554 0.74683 0.46142l1.914 3.6299c0.2016 0.43008 0.087 0.89068-0.2136 1.198l-0.8767 0.8767c-0.0541 0.0742-0.0897 0.1577-0.0906 0.2495 0.3362 1.3015 1.3561 2.5019 2.2559 3.3274 0.8998 0.8256 1.8669 1.9433 3.1223 2.208 0.1552 0.0433 0.3453 0.0588 0.4563-0.0444l1.0186-1.0373c0.3515-0.2665 0.8602-0.3957 1.2356-0.1777h0.017l3.4539 2.0388c0.5069 0.3178 0.5595 0.932 0.1965 1.3056l-2.3789 2.3601c-0.3513 0.3603-0.818 0.4814-1.2714 0.482-2.0055-0.0601-3.9004-1.0444-5.4568-2.0559-2.5548-1.8586-4.8982-4.1638-6.3694-6.9488-0.56424-1.1678-1.2271-2.6579-1.1638-3.9614 0.00565-0.49038 0.13832-0.97079 0.48366-1.2869l2.3789-2.3789c0.18531-0.15769 0.36864-0.23593 0.54173-0.24615z" fill="#0F9500"/>
</svg>
