<?xml version="1.0" encoding="UTF-8"?>
<svg fill="none" viewBox="0 0 40 40" xmlns="http://www.w3.org/2000/svg">
<mask id="a" x="0" y="0" width="40" height="40" mask-type="alpha" maskUnits="userSpaceOnUse">
<rect width="40" height="40" fill="#C4C4C4"/>
</mask>
<g mask="url(#a)">
<path d="m20 4c-5.524 0-10 4.458-10 9.98 0 9.548 10 22 10 22s10-12.454 10-22c0-5.52-4.476-9.98-10-9.98zm0 15.502c-1.4322 0-2.8057-0.5689-3.8184-1.5816s-1.5816-2.3862-1.5816-3.8184 0.5689-2.8057 1.5816-3.8184c1.0127-1.0127 2.3862-1.5816 3.8184-1.5816s2.8057 0.56893 3.8184 1.5816c1.0127 1.0127 1.5816 2.3862 1.5816 3.8184s-0.5689 2.8057-1.5816 3.8184-2.3862 1.5816-3.8184 1.5816z" fill="#0F9500"/>
</g>
</svg>
