<?xml version="1.0" encoding="UTF-8"?>
<svg viewBox="0 0 30 30" xmlns="http://www.w3.org/2000/svg">
<path d="m15 28.125-5.79-3.0872c-1.6506-0.8781-3.031-2.1892-3.9929-3.7924-0.96192-1.6033-1.4691-3.4382-1.4671-5.3079v-12.188c4.9e-4 -0.49713 0.1982-0.97375 0.54972-1.3253 0.35152-0.35152 0.82815-0.54922 1.3253-0.54972h18.75c0.4971 5e-4 0.9738 0.1982 1.3253 0.54972 0.3515 0.35153 0.5492 0.82815 0.5497 1.3253v12.188c2e-3 1.8697-0.5052 3.7046-1.4671 5.3079-0.9619 1.6032-2.3423 2.9143-3.9929 3.7924l-5.79 3.0872zm-9.375-24.375v12.188c-0.00156 1.5298 0.41353 3.0312 1.2007 4.3429 0.78718 1.3118 1.9167 2.3844 3.2674 3.1027l4.9069 2.6166 4.9069-2.6156c1.3508-0.7185 2.4804-1.7912 3.2676-3.1031 0.7872-1.312 1.2022-2.8135 1.2005-4.3435v-12.188h-18.75z" fill="#0F9500"/>
<path d="m15 23.697v-18.072h7.5v10.13c-1e-4 1.1883-0.3228 2.3543-0.9337 3.3735s-1.4871 1.8535-2.5351 2.4137l-4.0312 2.1553z" fill="#0F9500"/>
</svg>
