<?xml version="1.0" encoding="UTF-8"?>
<svg fill="none" viewBox="0 0 30 30" xmlns="http://www.w3.org/2000/svg">
<mask id="a" x="0" y="0" width="30" height="30" mask-type="alpha" maskUnits="userSpaceOnUse">
<rect width="30" height="30" fill="#C4C4C4"/>
</mask>
<g mask="url(#a)">
<g clip-path="url(#b)">
<path d="m28.125 13.25c0.5176 0 0.9595 0.1831 1.3257 0.5493s0.5493 0.8081 0.5493 1.3257-0.1831 0.9595-0.5493 1.3257-0.8081 0.5493-1.3257 0.5493h-0.2197l-1.6846 9.6973c-0.0781 0.4492-0.293 0.8203-0.6445 1.1132-0.3516 0.293-0.752 0.4395-1.2012 0.4395h-18.75c-0.44922 0-0.84961-0.1465-1.2012-0.4395-0.35156-0.2929-0.56641-0.664-0.64453-1.1132l-1.6846-9.6973h-0.21973c-0.51758 0-0.95947-0.1831-1.3257-0.5493s-0.54932-0.8081-0.54932-1.3257 0.1831-0.9595 0.54932-1.3257 0.8081-0.5493 1.3257-0.5493h26.25zm-21.021 11.719c0.25391-0.0196 0.46631-0.1294 0.63721-0.3296s0.24658-0.4273 0.22705-0.6812l-0.46875-6.0937c-0.01953-0.2539-0.12939-0.4664-0.32959-0.6372-0.2002-0.1709-0.42725-0.2466-0.68115-0.2271-0.25391 0.0195-0.46631 0.1294-0.63721 0.3296s-0.24658 0.4272-0.22705 0.6811l0.46875 6.0938c0.01953 0.2441 0.11963 0.4492 0.30029 0.6152 0.18067 0.166 0.39307 0.2491 0.63721 0.2491h0.07324zm6.0205-0.9376v-6.0937c0-0.2539-0.0928-0.4736-0.2783-0.6592-0.1856-0.1855-0.4053-0.2783-0.6592-0.2783s-0.4736 0.0928-0.6592 0.2783c-0.1855 0.1856-0.2783 0.4053-0.2783 0.6592v6.0937c0 0.254 0.0928 0.4737 0.2783 0.6592 0.1856 0.1856 0.4053 0.2784 0.6592 0.2784s0.4736-0.0928 0.6592-0.2784c0.1855-0.1855 0.2783-0.4052 0.2783-0.6592zm5.625 0v-6.0937c0-0.2539-0.0928-0.4736-0.2783-0.6592-0.1856-0.1855-0.4053-0.2783-0.6592-0.2783s-0.4736 0.0928-0.6592 0.2783c-0.1855 0.1856-0.2783 0.4053-0.2783 0.6592v6.0937c0 0.254 0.0928 0.4737 0.2783 0.6592 0.1856 0.1856 0.4053 0.2784 0.6592 0.2784s0.4736-0.0928 0.6592-0.2784c0.1855-0.1855 0.2783-0.4052 0.2783-0.6592zm5.1562 0.0733 0.4688-6.0938c0.0195-0.2539-0.0562-0.4809-0.2271-0.6811-0.1708-0.2002-0.3833-0.3101-0.6372-0.3296s-0.4809 0.0562-0.6811 0.2271c-0.2002 0.1708-0.3101 0.3833-0.3296 0.6372l-0.4688 6.0937c-0.0195 0.2539 0.0562 0.481 0.2271 0.6812s0.3833 0.31 0.6372 0.3296h0.0733c0.2441 0 0.4565-0.0831 0.6372-0.2491 0.1806-0.166 0.2807-0.3711 0.3002-0.6152zm-16.934-17.827-1.3623 6.0352h-1.9336l1.4795-6.46c0.18555-0.85938 0.62012-1.5601 1.3037-2.102s1.4648-0.81299 2.3438-0.81299h2.4463c0-0.25391 0.0928-0.47363 0.2783-0.65918 0.1856-0.18555 0.4053-0.27832 0.6592-0.27832h5.625c0.2539 0 0.4736 0.09277 0.6592 0.27832 0.1855 0.18555 0.2783 0.40527 0.2783 0.65918h2.4463c0.8789 0 1.6601 0.271 2.3437 0.81299s1.1182 1.2427 1.3038 2.102l1.4794 6.46h-1.9336l-1.3623-6.0352c-0.1074-0.42968-0.3295-0.78125-0.6665-1.0547-0.3369-0.27344-0.7251-0.41016-1.1645-0.41016h-2.4463c0 0.25391-0.0928 0.47363-0.2783 0.65918-0.1856 0.18555-0.4053 0.27832-0.6592 0.27832h-5.625c-0.2539 0-0.4736-0.09277-0.6592-0.27832-0.1855-0.18555-0.2783-0.40527-0.2783-0.65918h-2.4463c-0.43945 0-0.82764 0.13672-1.1646 0.41016-0.33691 0.27343-0.55908 0.625-0.6665 1.0547z" fill="#0F9500"/>
</g>
</g>
<defs>
<clipPath id="b">
<rect transform="translate(0 2)" width="30" height="26.25" fill="#fff"/>
</clipPath>
</defs>
</svg>
