<?xml version="1.0" encoding="UTF-8"?>
<svg fill="none" viewBox="0 0 40 40" xmlns="http://www.w3.org/2000/svg">
<mask id="a" x="0" y="0" width="40" height="40" mask-type="alpha" maskUnits="userSpaceOnUse">
<rect width="40" height="40" fill="#C4C4C4"/>
</mask>
<g mask="url(#a)">
<path d="m13.667 6.9167h11.667v-2.9167h2.9167v2.9167h1.4583c0.7736 0 1.5154 0.30729 2.0624 0.85427s0.8543 1.2888 0.8543 2.0624v20.417c0 0.7736-0.3073 1.5154-0.8543 2.0624s-1.2888 0.8543-2.0624 0.8543h-20.417c-0.77355 0-1.5154-0.3073-2.0624-0.8543s-0.85427-1.2888-0.85427-2.0624v-20.417c0-0.77354 0.30729-1.5154 0.85427-2.0624s1.2888-0.85427 2.0624-0.85427h1.4583v-2.9167h2.9167v2.9167zm-4.375 5.8333v17.5h20.417v-17.5h-20.417zm2.9166 4.375h2.9167v2.9167h-2.9167v-2.9167zm5.8334 0h2.9166v2.9167h-2.9166v-2.9167zm5.8333 0h2.9167v2.9167h-2.9167v-2.9167zm0 5.8333h2.9167v2.9167h-2.9167v-2.9167zm-5.8333 0h2.9166v2.9167h-2.9166v-2.9167zm-5.8334 0h2.9167v2.9167h-2.9167v-2.9167z" clip-rule="evenodd" fill="#0F9500" fill-rule="evenodd"/>
</g>
</svg>
