<?xml version="1.0" encoding="UTF-8"?>
<svg fill="none" viewBox="0 0 30 30" xmlns="http://www.w3.org/2000/svg">
<mask id="a" x="0" y="0" width="30" height="30" mask-type="alpha" maskUnits="userSpaceOnUse">
<rect width="30" height="30" fill="#C4C4C4"/>
</mask>
<g mask="url(#a)">
<g clip-path="url(#b)">
<path d="m22.875 12h-7.125v2.625c0 1.861-1.5141 3.375-3.375 3.375-1.861 0-3.375-1.514-3.375-3.375v-5.7l-3.0422 1.8281c-0.90468 0.5391-1.4578 1.5188-1.4578 2.5688v2.2172l-3.75 2.1656c-0.71719 0.4125-0.96562 1.3313-0.54844 2.0484l3.75 6.4969c0.4125 0.7172 1.3312 0.961 2.0484 0.5485l4.8468-2.7985h6.4032c1.6546 0 3-1.3453 3-3h0.75c0.8296 0 1.5-0.6703 1.5-1.5v-3h0.375c0.6234 0 1.125-0.5015 1.125-1.125v-2.25c0-0.6234-0.5016-1.125-1.125-1.125zm6.9234-1.7531-3.75-6.4969c-0.4125-0.71719-1.3313-0.96094-2.0484-0.54844l-4.8469 2.7984h-4.7906c-0.5625 0-1.111 0.15937-1.5891 0.45469l-1.5703 0.97968c-0.4406 0.27188-0.7031 0.75469-0.7031 1.2703v5.9203c0 1.036 0.839 1.875 1.875 1.875 1.0359 0 1.875-0.839 1.875-1.875v-4.125h8.625c1.4484 0 2.625 1.1766 2.625 2.625v1.336l3.75-2.1657c0.7171-0.4172 0.9609-1.3312 0.5484-2.0484z" fill="#0F9500"/>
</g>
</g>
<defs>
<clipPath id="b">
<rect transform="translate(0 3)" width="30" height="24" fill="#fff"/>
</clipPath>
</defs>
</svg>
