<?xml version="1.0" encoding="UTF-8"?>
<svg viewBox="0 0 30 30" xmlns="http://www.w3.org/2000/svg">
<path d="m20.742 21.667h6.55c-0.55-7.2583-3.675-11.767-7.6834-14.433l1.825-3.9833c0.0552-0.1264 0.0781-0.26451 0.0668-0.40196-0.0114-0.13744-0.0567-0.26992-0.1318-0.38555-0.0752-0.11563-0.1779-0.2108-0.2989-0.27698-0.121-0.06617-0.2565-0.10128-0.3944-0.10218h-11.425c-0.13791 9e-4 -0.27344 0.03601-0.39444 0.10218-0.121 0.06618-0.22369 0.16135-0.29885 0.27698s-0.12044 0.24811-0.1318 0.38555c-0.01135 0.13745 0.01158 0.27556 0.06675 0.40196l1 2.1667h8.4333l-0.75 1.6667h-1.5417c0.4709 1.266 0.8169 2.575 1.0334 3.9084 0.1401 0.827 0.2292 1.662 0.2666 2.5l-1.3166 0.925c0.0035-1.0779-0.0857-2.1541-0.2667-3.2167-0.2303-1.4142-0.6275-2.796-1.1833-4.1166h-0.8334c-0.769 0.97172-1.4601 2.0027-2.0666 3.0834-0.4891 0.9269-0.9043 1.891-1.2417 2.8833l-1.1417-0.7583c0.33324-0.9591 0.74289-1.8898 1.225-2.7834 0.4872-0.83788 1.0214-1.6475 1.6-2.425h-1.4583l0.0667 0.14167c-4.4167 2.9417-7.775 8.1084-7.775 16.733-0.01126 0.1813 0.01352 0.363 0.0729 0.5347 0.05938 0.1716 0.15219 0.3298 0.27306 0.4654 0.12088 0.1356 0.26743 0.2459 0.43118 0.3246 0.16375 0.0786 0.34146 0.124 0.52286 0.1336h6.6666c-0.2862-0.2979-0.4839-0.6697-0.57078-1.0736-0.0869-0.4039-0.05961-0.8241 0.07878-1.2134 0.1384-0.3893 0.3825-0.7323 0.7049-0.9907s0.7104-0.422 1.1205-0.4723c-0.1996-0.3385-0.306-0.7238-0.3084-1.1167 0-0.5967 0.2371-1.169 0.659-1.591 0.422-0.4219 0.9943-0.659 1.591-0.659h5c0.5968 0 1.1691 0.2371 1.591 0.659 0.422 0.422 0.659 0.9943 0.659 1.591 0.0043 0.3916-0.0964 0.7772-0.2916 1.1167z" fill="#0F9500"/>
<path d="m18 23.75c0-0.221-0.0878-0.433-0.2441-0.5893s-0.3682-0.2441-0.5892-0.2441h-5c-0.2211 0-0.433 0.0878-0.5893 0.2441s-0.2441 0.3683-0.2441 0.5893 0.0878 0.433 0.2441 0.5892c0.1563 0.1563 0.3682 0.2441 0.5893 0.2441h5c0.221 0 0.4329-0.0878 0.5892-0.2441 0.1563-0.1562 0.2441-0.3682 0.2441-0.5892z" fill="#0F9500"/>
<path d="m18.783 19.583h-5c-0.221 0-0.4329 0.0877-0.5892 0.244s-0.2441 0.3683-0.2441 0.5893 0.0878 0.433 0.2441 0.5892c0.1563 0.1563 0.3682 0.2441 0.5892 0.2441h5c0.221 0 0.433-0.0878 0.5893-0.2441 0.1563-0.1562 0.2441-0.3682 0.2441-0.5892s-0.0878-0.433-0.2441-0.5893-0.3683-0.244-0.5893-0.244z" fill="#0F9500"/>
<path d="m18.333 26.25h-5c-0.221 0-0.4329 0.0878-0.5892 0.2441s-0.2441 0.3682-0.2441 0.5892 0.0878 0.433 0.2441 0.5893 0.3682 0.2441 0.5892 0.2441h5c0.221 0 0.433-0.0878 0.5893-0.2441s0.2441-0.3683 0.2441-0.5893-0.0878-0.4329-0.2441-0.5892-0.3683-0.2441-0.5893-0.2441z" fill="#0F9500"/>
<path d="m27.25 26.25h-5.8333c-0.2211 0-0.433 0.0878-0.5893 0.2441s-0.2441 0.3682-0.2441 0.5892 0.0878 0.433 0.2441 0.5893 0.3682 0.2441 0.5893 0.2441h5.8333c0.221 0 0.433-0.0878 0.5893-0.2441 0.1562-0.1563 0.244-0.3683 0.244-0.5893s-0.0878-0.4329-0.244-0.5892c-0.1563-0.1563-0.3683-0.2441-0.5893-0.2441z" fill="#0F9500"/>
<path d="m28.083 22.917h-5.8333c-0.221 0-0.433 0.0878-0.5893 0.2441-0.1562 0.1563-0.244 0.3683-0.244 0.5893s0.0878 0.433 0.244 0.5892c0.1563 0.1563 0.3683 0.2441 0.5893 0.2441h5.8333c0.2211 0 0.433-0.0878 0.5893-0.2441 0.1563-0.1562 0.2441-0.3682 0.2441-0.5892s-0.0878-0.433-0.2441-0.5893-0.3682-0.2441-0.5893-0.2441z" fill="#0F9500"/>
</svg>
