<?xml version="1.0" encoding="UTF-8"?>
<svg viewBox="0 0 110 128" xmlns="http://www.w3.org/2000/svg">
<path d="M110 0H0V128H110V0Z" fill="#fff"/>
<path d="m12.791 111.39v-9.927h1.9186l2.75 7.68 2.8267-7.68h1.746v9.927h-1.2919v-8.064l-2.7308 7.398h-1.3622l-2.6285-7.418v8.084h-1.2279z" fill="#878C99"/>
<path d="m24.322 111.39v-9.927h1.407v9.927h-1.407z" fill="#878C99"/>
<path d="m27.999 111.39v-9.927h1.3175v4.883l4.0163-4.883h1.4133l-3.8819 4.736 4.5662 5.191h-1.7779l-4.336-5.031v5.031h-1.3175z" fill="#878C99"/>
<path d="m36.722 111.39v-9.927h5.5384v1.056h-4.1314v3.2h3.4662v1.037h-3.4662v3.597h4.4192v1.049l-5.8262-0.012z" fill="#878C99"/>
<path d="m48.496 111.39v-9.927h1.407v9.927h-1.407z" fill="#878C99"/>
<path d="m54.949 111.39-3.7476-9.927h1.4069l3.057 8.147 2.9675-8.128h1.2343l-3.6006 9.927-1.3175-0.019z" fill="#878C99"/>
<path d="m59.131 111.39 3.9331-9.927h1.3942l3.8372 9.927h-1.5157l-1.0808-2.74h-4.1698l-1.0936 2.74h-1.3046zm2.8012-3.796h3.3895l-1.6948-4.288-1.6947 4.288z" fill="#878C99"/>
<path d="m69.581 111.39v-9.927h1.3558l4.9884 7.68v-7.68h1.2087v9.927h-1.375l-5.0012-7.68v7.68h-1.1767z" fill="#878C99"/>
<path d="m83.562 111.64c-0.6326 0.027-1.2632-0.087-1.8469-0.333-0.5837-0.245-1.106-0.617-1.5298-1.088-0.8174-1.095-1.2591-2.425-1.2591-3.792 0-1.366 0.4417-2.697 1.2591-3.792 0.4404-0.448 0.9655-0.803 1.5447-1.046s1.2009-0.368 1.8288-0.368c0.628 0 1.2497 0.125 1.8289 0.368s1.1043 0.598 1.5447 1.046c0.828 1.097 1.2755 2.435 1.2743 3.809-0.0011 1.375-0.4508 2.712-1.2807 3.807-0.4242 0.465-0.9457 0.83-1.5271 1.071-0.5814 0.24-1.2086 0.348-1.8369 0.318zm0-1.056c0.4456 0.02 0.8892-0.07 1.2919-0.261 0.4026-0.192 0.7518-0.481 1.0169-0.84 0.5442-0.927 0.8311-1.983 0.8311-3.059 0-1.075-0.2869-2.131-0.8311-3.059-0.2808-0.342-0.6338-0.617-1.0335-0.806s-0.8364-0.287-1.2785-0.287-0.8787 0.098-1.2784 0.287c-0.3998 0.189-0.7527 0.464-1.0335 0.806-0.5442 0.928-0.8312 1.984-0.8312 3.059 0 1.076 0.287 2.132 0.8312 3.059 0.2664 0.359 0.6169 0.648 1.0205 0.84 0.4036 0.191 0.8482 0.281 1.2946 0.261z" fill="#878C99"/>
<path d="m92.285 111.39-3.7477-9.927h1.407l3.0634 8.128 2.9674-8.128h1.2343l-3.5942 9.927h-1.3302z" fill="#878C99"/>
<path d="m97.209 12.864h-84.419v84.48h84.419v-84.48z" fill="#878C99"/>
<path d="m97.209 114.73h-84.419v0.64h84.419v-0.64z" fill="#878C99"/>
<path d="m19.186 90.95v-47.264h9.2476l13.085 36.563 13.481-36.563h8.314v47.264h-6.2867v-38.4l-13.002 35.2h-6.4721l-12.624-35.283v38.483h-5.743z" fill="#fff"/>
<path d="m75.414 90.95v-47.264h6.7023v47.264h-6.7023z" fill="#fff"/>
</svg>
